{
    "asset" : {
        "generator" : "Khronos glTF Blender I/O v3.3.27",
        "version" : "2.0"
    },
    "scene" : 0,
    "scenes" : [
        {
            "name" : "Scene",
            "nodes" : [
                0
            ]
        }
    ],
    "nodes" : [
        {
            "extras" : {
                "jv_properties" : {}
            },
            "mesh" : 0,
            "name" : "Cylinder.001",
            "scale" : [
                0.4209023416042328,
                0.1004372239112854,
                0.4209023416042328
            ],
            "translation" : [
                0.10660359263420105,
                -0.05641103535890579,
                0
            ]
        }
    ],
    "materials" : [
        {
            "doubleSided" : true,
            "name" : "Material.004",
            "pbrMetallicRoughness" : {
                "baseColorTexture" : {
                    "index" : 0
                },
                "metallicFactor" : 0,
                "roughnessFactor" : 0.5
            }
        }
    ],
    "meshes" : [
        {
            "name" : "Cylinder.002",
            "primitives" : [
                {
                    "attributes" : {
                        "POSITION" : 0,
                        "NORMAL" : 1,
                        "TEXCOORD_0" : 2
                    },
                    "indices" : 3,
                    "material" : 0
                }
            ]
        }
    ],
    "textures" : [
        {
            "sampler" : 0,
            "source" : 0
        }
    ],
    "images" : [
        {
            "mimeType" : "image/png",
            "name" : "plastic002",
            "uri" : "gltf/plastic002.png"
        }
    ],
    "accessors" : [
        {
            "bufferView" : 0,
            "componentType" : 5126,
            "count" : 1083368,
            "max" : [
                8.129240036010742,
                4.227168560028076,
                8.104928970336914
            ],
            "min" : [
                -9.243612289428711,
                -0.08420845866203308,
                -8.104928970336914
            ],
            "type" : "VEC3"
        },
        {
            "bufferView" : 1,
            "componentType" : 5126,
            "count" : 1083368,
            "type" : "VEC3"
        },
        {
            "bufferView" : 2,
            "componentType" : 5126,
            "count" : 1083368,
            "type" : "VEC2"
        },
        {
            "bufferView" : 3,
            "componentType" : 5125,
            "count" : 1625376,
            "type" : "SCALAR"
        }
    ],
    "bufferViews" : [
        {
            "buffer" : 0,
            "byteLength" : 13000416,
            "byteOffset" : 0,
            "target" : 34962
        },
        {
            "buffer" : 0,
            "byteLength" : 13000416,
            "byteOffset" : 13000416,
            "target" : 34962
        },
        {
            "buffer" : 0,
            "byteLength" : 8666944,
            "byteOffset" : 26000832,
            "target" : 34962
        },
        {
            "buffer" : 0,
            "byteLength" : 6501504,
            "byteOffset" : 34667776,
            "target" : 34963
        }
    ],
    "samplers" : [
        {
            "magFilter" : 9729,
            "minFilter" : 9987
        }
    ],
    "buffers" : [
        {
            "byteLength" : 41169280,
            "uri" : "scene.bin"
        }
    ]
}
